<?xml version="1.0" encoding="UTF-8" standalone="no"?>
<!-- Created with Inkscape (http://www.inkscape.org/) -->

<svg
   xmlns:dc="http://purl.org/dc/elements/1.1/"
   xmlns:cc="http://creativecommons.org/ns#"
   xmlns:rdf="http://www.w3.org/1999/02/22-rdf-syntax-ns#"
   xmlns:svg="http://www.w3.org/2000/svg"
   xmlns="http://www.w3.org/2000/svg"
   version="1.1"
   width="750"
   height="600"
   viewBox="0 0 750 600"
   id="Layer_1"
   xml:space="preserve"
   style="overflow:visible"><metadata
     id="metadata24"><rdf:RDF><cc:Work
         rdf:about=""><dc:format>image/svg+xml</dc:format><dc:type
           rdf:resource="http://purl.org/dc/dcmitype/StillImage" /><dc:title></dc:title></cc:Work></rdf:RDF></metadata><defs
     id="defs22" /><g
     id="g3861"><g
       id="g5"><path
         d="M 0,50 C 0,22.385742 22.385254,0 50,0 h 650 c 27.61426,0 50,22.385742 50,50 v 500 c 0,27.61523 -22.38574,50 -50,50 H 50 C 22.385254,600 0,577.61523 0,550 V 50 l 0,0 z"
         id="path7" /><path
         d="M 375,300"
         id="path9" /></g><path
       d="M 375,10.001953 C 338.67236,32.46582 295.85059,45.430664 250,45.430664 204.14941,45.430664 161.32715,32.463867 125,10 L 10,125 c 21.163086,30.08057 33.587891,66.75244 33.587891,106.32764 0,28.56006 -6.471192,55.6084 -18.027832,79.7583 C 15.584961,331.95508 10,355.32617 10,380 10,468.36719 81.633301,540 170,540 H 270.11523 C 312.4585,540 350.24854,559.49414 375,589.99805 399.75098,559.49414 437.54102,540 479.88477,540 H 580 c 88.36719,0 160,-71.63281 160,-160 0,-24.67383 -5.58496,-48.04492 -15.56055,-68.91406 -11.55664,-24.1499 -18.02734,-51.19824 -18.02734,-79.7583 0,-39.5752 12.4248,-76.24707 33.58789,-106.32764 L 625,10 c -36.32715,22.463867 -79.14941,35.430664 -125,35.430664 -45.85059,0 -88.67285,-12.964844 -125,-35.428711 z"
       id="path11"
       style="fill:#ffffff;fill-opacity:1;fill-rule:evenodd" /></g><g
     id="text1331"
     style="font-size:447.76119995px;font-style:normal;font-variant:normal;font-weight:normal;font-stretch:normal;text-align:center;line-height:125%;writing-mode:lr-tb;text-anchor:middle;font-family:Roadgeek 2005 Series D;-inkscape-font-specification:Roadgeek 2005 Series D"><path
       d="m 93.305724,437.5 0,-243.13433 -27.313434,0 0,-38.0597 3.134329,0 c 6.268618,2.8e-4 12.537268,-1.64151 18.80597,-4.92538 6.268599,-3.28329 11.492475,-7.91015 15.671641,-13.88059 l 38.0597,0 0,300 -48.358206,0"
       id="path4558" /><path
       d="m 410.97131,227.94776 c -2.3e-4,20.5972 -2.83605,41.1942 -8.50746,61.79104 -5.37336,20.29864 -13.13454,39.85086 -23.28359,58.65672 -10.14944,18.80604 -22.38824,36.26871 -36.71641,52.38806 -14.32851,16.11943 -30.14939,30.14926 -47.46269,42.08955 l -22.83582,-40.2985 c 8.95512,-7.16414 16.86556,-14.02981 23.73134,-20.59702 7.16405,-6.86561 13.58196,-13.88053 19.25373,-21.04478 5.6715,-7.16409 10.89538,-14.77602 15.67164,-22.83582 4.77597,-8.05959 9.40283,-17.01481 13.8806,-26.86567 -8.65687,1.49266 -15.37329,2.53744 -20.14925,3.13433 -4.47776,0.59714 -9.70163,0.89564 -15.67164,0.89552 -14.02997,1.2e-4 -27.31354,-2.38793 -39.85075,-7.16418 -12.23889,-4.77598 -22.98514,-11.19389 -32.23881,-19.25373 -9.25378,-8.35805 -16.56721,-18.05953 -21.9403,-29.10448 -5.37316,-11.34309 -8.05973,-23.28338 -8.0597,-35.82089 -3e-5,-12.8356 2.68654,-24.77588 8.0597,-35.8209 5.37309,-11.34302 12.53727,-21.0445 21.49254,-29.10448 9.25366,-8.35792 19.99992,-14.92508 32.23881,-19.70149 12.53721,-4.77582 25.97003,-7.16387 40.29851,-7.16418 14.32821,3.1e-4 27.76103,2.53762 40.2985,7.61194 12.53713,4.77641 23.28339,11.49283 32.23881,20.14926 9.25352,8.35847 16.41769,18.35846 21.49254,30 5.3729,11.64202 8.05947,24.32858 8.0597,38.0597 m -47.46269,-4.02985 c -1.8e-4,-5.67142 -1.49272,-11.19381 -4.47761,-16.56717 -2.98525,-5.3729 -7.0151,-9.99976 -12.08955,-13.88059 -4.77629,-3.88035 -10.44792,-7.01468 -17.01493,-9.40299 -6.56731,-2.3878 -13.58223,-3.58183 -21.04477,-3.58209 -7.46282,2.6e-4 -14.47773,1.19429 -21.04478,3.58209 -6.26876,2.0898 -11.9404,5.07488 -17.01493,8.95522 -4.7762,3.88084 -8.6568,8.5077 -11.64179,13.8806 -2.68664,5.37336 -4.02993,11.045 -4.02985,17.01493 -8e-5,5.97035 1.34321,11.64199 4.02985,17.01492 2.98499,5.07482 6.86559,9.55243 11.64179,13.43284 5.07453,3.88078 10.74617,7.0151 17.01493,9.40298 6.56705,2.08973 13.58196,3.1345 21.04478,3.13433 7.46254,1.7e-4 14.47746,-1.0446 21.04477,-3.13433 6.86551,-2.38788 12.6864,-5.5222 17.46269,-9.40298 5.07445,-3.88041 8.95504,-8.35802 11.64179,-13.43284 2.98489,-5.37293 4.47743,-11.04457 4.47761,-17.01492"
       id="path4560" /><path
       d="m 682.71341,287.94776 c -2.5e-4,23.88072 -2.83606,46.71652 -8.50747,68.50746 -5.67187,21.79111 -13.73156,39.40303 -24.1791,52.83582 -16.71661,22.38807 -40.89569,33.58209 -72.53732,33.58209 -21.19414,0 -38.65681,-4.32835 -52.38806,-12.98507 -13.73141,-8.6567 -25.07468,-22.23878 -34.02985,-40.74627 -6.2687,-12.83576 -11.34332,-28.35813 -15.22388,-46.56716 -3.88063,-18.50735 -5.82092,-36.71629 -5.82089,-54.62687 -3e-5,-24.77595 2.83578,-47.761 8.50746,-68.95523 5.9701,-21.19379 14.0298,-38.95496 24.1791,-53.28358 8.95516,-11.343 19.55216,-19.7012 31.79105,-25.07463 12.53721,-5.67133 27.46256,-8.50715 44.77612,-8.50746 19.10432,3.1e-4 35.37296,4.32866 48.80597,12.98508 13.43263,8.657 24.92516,22.23907 34.47761,40.74627 6.26843,13.43307 11.1938,29.1047 14.77612,47.01492 3.58185,17.91064 5.37289,36.26883 5.37314,55.07463 m -47.46269,0 c -2e-4,-17.01476 -1.49273,-32.68639 -4.47761,-47.01493 -2.98526,-14.62665 -7.46287,-27.0147 -13.43284,-37.16418 -4.77629,-7.76095 -10.29867,-13.43259 -16.56716,-17.01492 -5.97031,-3.58184 -13.43299,-5.67139 -22.38806,-6.26866 -11.64192,-0.59676 -21.3434,2.08981 -29.10448,8.0597 -7.7613,5.9704 -14.1792,15.67188 -19.25373,29.10448 -3.88069,8.95544 -6.86576,19.85095 -8.95523,32.68657 -1.79112,12.53749 -2.68664,25.07479 -2.68656,37.61194 -8e-5,16.11954 1.49245,31.64191 4.47761,46.56716 2.98499,14.92547 7.46259,27.16426 13.43283,36.71642 4.77602,7.76126 10.44766,13.58214 17.01493,17.46269 6.56704,3.88064 14.62674,5.82094 24.1791,5.82089 11.04463,5e-5 20.1491,-2.98502 27.31344,-8.95522 7.46251,-5.97009 13.73116,-15.67157 18.80597,-29.10448 1.49235,-3.88051 2.98489,-8.50737 4.47761,-13.88059 1.49235,-5.67155 2.68638,-11.49244 3.58209,-17.46269 1.19384,-6.26854 2.08936,-12.53719 2.68657,-18.80597 0.59682,-6.26852 0.89532,-12.38792 0.89552,-18.35821"
       id="path4562" /></g></svg>